<?xml version="1.0" standalone="no"?>
<!DOCTYPE svg PUBLIC "-//W3C//DTD SVG 20010904//EN"
 "http://www.w3.org/TR/2001/REC-SVG-20010904/DTD/svg10.dtd">
<svg version="1.0" xmlns="http://www.w3.org/2000/svg"
 width="200.000000pt" height="200.000000pt" viewBox="0 0 200.000000 200.000000"
 preserveAspectRatio="xMidYMid meet">
<metadata>
Created by potrace 1.11, written by Peter Selinger 2001-2013
</metadata>
<g transform="translate(0.000000,200.000000) scale(0.100000,-0.100000)"
fill="#000000" stroke="none">
<path d="M0 1635 l0 -365 99 0 c89 0 133 10 99 23 -10 3 -10 8 1 18 10 11 15
11 18 2 8 -21 33 -15 33 8 0 17 4 20 24 15 16 -4 30 0 41 10 9 9 23 13 32 10
9 -4 20 -1 24 5 8 14 16 -59 27 -238 l7 -121 -40 -12 c-74 -22 -81 -35 -135
-247 -50 -197 -78 -365 -85 -497 -3 -55 -8 -134 -10 -173 l-5 -73 935 0 935 0
0 1000 0 1000 -1000 0 -1000 0 0 -365z m854 -247 c-4 -34 -4 -34 -13 -19 -10
15 -4 41 8 41 4 0 7 -10 5 -22z"/>
</g>
</svg>
